HIERARCHY
ROOT pelvis
{
  OFFSET 0 100 0
  CHANNELS 6 Xposition Yposition Zposition Zrotation Xrotation Yrotation
  JOINT pelvis_right_femur
  {
    OFFSET -10.78128 -3.44521 -0.5502486
    CHANNELS 3 Zrotation Xrotation Yrotation
    JOINT right_femur_tibia
    {
      OFFSET -0.8047443 -44.0398 -0.1307829
      CHANNELS 3 Zrotation Xrotation Yrotation
      JOINT right_tibia_foot
      {
        OFFSET 3.006224 -47.83518 -5
        CHANNELS 3 Zrotation Xrotation Yrotation
        End Site
        {
          OFFSET 0 -5 15
        }
      }
    }
  }
  JOINT pelvis_left_femur
  {
    OFFSET 10.78128 -3.44521 -0.5502486
    CHANNELS 3 Zrotation Xrotation Yrotation
    JOINT left_femur_tibia
    {
      OFFSET 0.8047443 -44.0398 -0.1307829
      CHANNELS 3 Zrotation Xrotation Yrotation
      JOINT left_tibia_foot
      {
        OFFSET -4.370144 -48.10324 -4.275266
        CHANNELS 3 Zrotation Xrotation Yrotation
        End Site
        {
          OFFSET 0 -5 15
        }
      }
    }
  }
  JOINT pelvis_spine1
  {
    OFFSET 0 6.468898 -3.129235
    CHANNELS 3 Zrotation Xrotation Yrotation
    JOINT spine1
    {
      OFFSET 0 23.15396 4.99043
      CHANNELS 3 Zrotation Xrotation Yrotation
      JOINT spine2
      {
        OFFSET 0 20.79997 -5.064912
        CHANNELS 3 Zrotation Xrotation Yrotation
        JOINT neck
        {
          OFFSET 0 14.38658 9.616178
          CHANNELS 3 Zrotation Xrotation Yrotation
          End Site
          {
            OFFSET 0 20 0
          }
        }
      }
      JOINT right_manubrium
      {
        OFFSET -5.722621 16.35077 3.967754
        CHANNELS 3 Zrotation Xrotation Yrotation
        JOINT right_clavicle
        {
          OFFSET -13.16364 1.694482 -4.693211
          CHANNELS 3 Zrotation Xrotation Yrotation
          JOINT right_humerus
          {
            OFFSET -28.5034 -0.3100689 -2.792744
            CHANNELS 3 Zrotation Xrotation Yrotation
            JOINT right_radius
            {
              OFFSET -25.15693 0.02248979 -1.271978
              CHANNELS 3 Zrotation Xrotation Yrotation
              End Site
              {
                OFFSET -15 0 0
              }
            }
          }
        }
      }
      JOINT left_manubrium
      {
        OFFSET 5.722621 16.35077 3.967754
        CHANNELS 3 Zrotation Xrotation Yrotation
        JOINT left_clavicle
        {
          OFFSET 13.16364 1.694482 -4.693211
          CHANNELS 3 Zrotation Xrotation Yrotation
          JOINT left_humerus
          {
            OFFSET 29.39168 -1.063119 -2.237045
            CHANNELS 3 Zrotation Xrotation Yrotation
            JOINT left_radius
            {
              OFFSET 24.59957 -0.9528479 0.9047498
              CHANNELS 3 Zrotation Xrotation Yrotation
              End Site
              {
                OFFSET 15 -0 -0
              }
            }
          }
        }
      }
    }
  }
}
MOTION
Frames: 9
Frame Time: 0.0416666666667
-256.1452 103.6862 2880.965 -1.900064 -6.469745 -14.10424 6.329592 -8.378615 3.028862 -0 13.25433 -0 -6.356912 -5.653278 -4.900832 -2.312817 0.693553 -6.787107 -0 55.26978 -0 -5.246065 -6.953748 14.09003 0.7618781 -2.632862 5.172247 0.124708 14.43805 -6.410376 1.827894 21.82085 3.898039 1.414554 -19.04454 5.992935 -2.885019 -23.29195 11.55445 93.65552 15.27381 -18.31973 -0 0 14.74489 -22.67692 12.76281 11.78822 4.311385 -24.94626 -8.33727 -89.52374 16.87451 21.78537 0 0 -20.28393 6.540898 14.35814 6.426661
-257.7557 104.692 2886.392 -2.003489 -6.511923 -15.01982 6.456822 -3.33616 3.384396 -0 12.13579 -0 -6.691097 -8.199873 -4.235027 -1.613098 -4.440402 -6.622868 -0 55.18585 -0 -4.789863 -5.557951 15.20814 0.8934899 -2.746322 5.803617 -0.1142026 14.65716 -5.94821 1.795829 21.67637 3.743523 1.366769 -19.17019 5.827053 -3.007898 -24.51447 11.6434 92.85276 15.03706 -16.68215 -0 0 16.80375 -23.06199 12.77989 12.40749 3.982558 -24.3557 -8.247948 -91.05869 16.67424 24.69822 0 0 -18.19171 5.917943 14.45712 7.24866
-259.2648 105.3813 2891.723 -2.038018 -6.311962 -16.03726 6.338429 1.663907 3.30655 -0 10.07962 -0 -6.885566 -10.68105 -3.33987 -0.7435391 -9.817219 -6.18481 -0 51.23667 -0 -4.196394 -4.745123 16.23176 1.00562 -2.829435 6.457024 -0.3722827 14.83668 -5.44592 1.768182 21.54199 3.595589 1.321554 -19.26045 5.667097 -3.095275 -25.71845 11.7276 91.96712 14.84844 -14.92981 -0 0 18.93618 -23.49483 12.79478 13.06409 3.650233 -23.67728 -8.113077 -92.64388 16.43176 27.62417 0 0 -15.96605 5.211202 14.49767 8.152242
-260.6695 105.5777 2897.09 -1.995433 -5.956712 -17.08117 6.016114 6.369078 2.894816 -0 7.676322 -0 -6.87693 -12.84302 -2.306512 0.2354607 -15.04071 -5.508936 -0 44.15237 -0 -3.531265 -4.494073 17.11908 1.088331 -2.871736 7.108781 -0.6426846 14.96026 -4.916056 1.747856 21.42634 3.461394 1.281054 -19.3003 5.521216 -3.137566 -26.8467 11.80334 91.01433 14.7219 -13.10809 -0 0 21.06556 -23.97269 12.80694 13.74014 3.326902 -22.92066 -7.929823 -94.21322 16.16281 30.43862 0 0 -13.67338 4.433417 14.46189 9.115254
-261.9736 105.219 2902.579 -1.8853 -5.573361 -18.07957 5.527371 10.49636 2.345067 -0 5.855786 -0 -6.63746 -14.44533 -1.278789 1.165606 -19.62326 -4.770569 -0 35.34381 -0 -2.868421 -4.703209 17.87714 1.132888 -2.865073 7.730153 -0.9151635 15.01399 -4.377676 1.737657 21.33759 3.348134 1.246886 -19.27763 5.398152 -3.128344 -27.83783 11.8667 90.02079 14.66843 -11.28135 -0 0 23.09864 -24.48643 12.81672 14.41123 3.026199 -22.10615 -7.700283 -95.68858 15.89785 33.00474 0 0 -11.4048 3.605357 14.33617 10.10794
-263.1872 104.3796 2908.219 -1.736504 -5.305552 -18.96879 4.88835 13.76309 1.882125 -0 5.628041 -0 -6.171073 -15.26051 -0.4321508 1.810506 -23.0672 -4.226561 -0 26.56402 -0 -2.300532 -5.221265 18.51998 1.132088 -2.805007 8.279346 -1.17219 14.98759 -3.864036 1.739936 21.2841 3.26438 1.220943 -19.18563 5.308206 -3.06506 -28.61573 11.91269 89.03787 14.69867 -9.559351 -0 0 24.89903 -25.01113 12.82504 15.03665 2.76732 -21.27786 -7.435755 -96.9629 15.68442 35.14448 0 0 -9.306154 2.771061 14.1171 11.07502
-264.3277 103.2543 2914.001 -1.588232 -5.27663 -19.69451 4.102841 15.97255 1.677167 -0 7.737619 -0 -5.500674 -15.11412 0.07410651 1.95294 -25.00911 -4.094738 -0 19.39307 -0 -1.929423 -5.888649 19.03943 1.08281 -2.693725 8.705896 -1.390252 14.87907 -3.420474 1.755617 21.27253 3.218677 1.205512 -19.02703 5.26107 -2.951103 -29.10191 11.9361 88.1402 14.82204 -8.090572 -0 0 26.30123 -25.50476 12.833 15.56175 2.5736 -20.504 -7.158216 -97.91331 15.57881 36.6629 0 0 -7.565088 2.00002 13.81896 11.9342
-265.4201 102.1017 2919.915 -1.47211 -5.549879 -20.2104 3.185324 17.069 1.784625 -0 12.39639 -0 -4.652403 -13.93994 0.1481581 1.514751 -25.32247 -4.434442 -0 14.73316 -0 -1.833994 -6.589561 19.40262 0.9898595 -2.542696 8.967914 -1.546929 14.7001 -3.091391 1.783112 21.30388 3.215614 1.202108 -18.81818 5.261383 -2.798095 -29.2487 11.93384 87.40751 15.03913 -7.019179 -0 0 27.16699 -25.9174 12.84188 15.93437 2.464249 -19.86056 -6.896644 -98.44427 15.623 37.42131 0 0 -6.353583 1.368634 13.47627 12.60014
-266.4932 101.1773 2925.959 -1.397 -6.107779 -20.47804 2.17812 17.08893 2.14526 -0 19.25941 -0 -3.654245 -11.81396 -0.2180919 0.5806615 -24.08847 -5.145804 -0 12.66503 -0 -2.032942 -7.285082 19.57509 0.8669171 -2.371479 9.048157 -1.628572 14.47575 -2.905779 1.818344 21.37133 3.252906 1.210068 -18.58742 5.306069 -2.625214 -29.06378 11.90675 86.90337 15.33375 -6.437895 -0 0 27.4383 -26.20607 12.85307 16.1228 2.446106 -19.40879 -6.679461 -98.52521 15.82263 37.39542 0 0 -5.770014 0.9337083 13.13546 13.01641
